<svg xmlns="http://www.w3.org/2000/svg" viewBox="0 0 82 68"><g fill-rule="evenodd" clip-rule="evenodd"><path d="M39 6c2.9 0 5.4 1.7 6.7 4.3l9.6 20.2a22 22 0 0 0 4.6-9.5c.8-4 4.6-6.5 8.6-5.7a7.3 7.3 0 0 1 5.7 8.6 37 37 0 0 1-12.3 20.6l3.5 7.3c2 4.1 0 9.1-4.4 10.4l-2 .3a7 7 0 0 1-6.6-4.2l-3.1-6.5-6.4-13.3-3-6.6a.8.8 0 0 0-1.6 0l-3.1 6.7c-4.9-1-9.8-4-12.5-7.7l9.8-20.6a7 7 0 0 1 6.6-4.2m-27.5 18c3.8-1.4 8 .4 9.5 4.1q.6 1.5 1.7 2.8l.3.5.2.2.1.1.6.7a20 20 0 0 0 3.5 3h.2a23 23 0 0 0 10.9 3.6h.1q2.3 0 4.3-.5l6.4 13.3a33 33 0 0 1-20.5.2l-3 6.3a7.3 7.3 0 0 1-10 3.3 7.4 7.4 0 0 1-3.1-9.7l3.3-7a30 30 0 0 1-8.5-11.2v-.1c-1.5-3.8.3-8 4-9.5"/><path fill="#fff" stroke="#fff" stroke-linejoin="round" stroke-width="6.9" d="M39 6c2.9 0 5.4 1.7 6.7 4.3l9.6 20.2a22 22 0 0 0 4.6-9.5c.8-4 4.6-6.5 8.6-5.7a7.3 7.3 0 0 1 5.7 8.6 37 37 0 0 1-12.3 20.6l3.5 7.3c2 4.1 0 9.1-4.4 10.4l-2 .3a7 7 0 0 1-6.6-4.2l-3.1-6.5-6.4-13.3-3-6.6a.8.8 0 0 0-1.6 0l-3.1 6.7c-4.9-1-9.8-4-12.5-7.7l9.8-20.6a7 7 0 0 1 6.6-4.2zM11.5 24c3.8-1.4 8 .4 9.5 4.1q.6 1.5 1.7 2.8l.3.5.2.2.1.1.6.7a20 20 0 0 0 3.5 3h.2A23 23 0 0 0 38.5 39h.1q2.3 0 4.3-.5l6.4 13.3a33 33 0 0 1-20.5.2l-3 6.3a7.3 7.3 0 0 1-10 3.3 7.4 7.4 0 0 1-3.1-9.7l3.3-7a30 30 0 0 1-8.5-11.2v-.1c-1.5-3.8.3-8 4-9.5z"/></g><g fill-rule="evenodd" clip-rule="evenodd"><path d="m28.8 52 6.4-13.4c-4.9-1-9.8-4-12.5-7.7l-6.7 14q5.6 4.8 12.8 7" fill="#1a007f"/><path d="M55.3 30.5q-5 6.1-12.4 8l6.4 13.3q7-2.4 12.6-7.3z" fill="#4e000a"/><path d="m16 44.9-3.3 7a7.4 7.4 0 0 0 3 9.7c3.7 2 8.3.5 10-3.3l3.1-6.3A38 38 0 0 1 16 44.9" fill="#1a007f"/><path d="M68.5 15.3a7.3 7.3 0 0 0-8.6 5.7 22 22 0 0 1-4.6 9.5l6.6 14a37 37 0 0 0 12.3-20.6c.8-4-1.8-7.8-5.7-8.6" fill="#ff9396"/><path d="M43 38.5a19 19 0 0 1-7.8.1c-4.9-1-9.8-4-12.5-7.7q-1-1.3-1.7-2.8a7.3 7.3 0 0 0-13.5 5.5q2.7 6.3 8.5 11.3a38 38 0 0 0 12.8 7 32 32 0 0 0 20.5-.1z" fill="#002dc8"/><path d="m65.4 51.8-3.5-7.3-6.6-14-9.6-20.2a7 7 0 0 0-6.6-4.2 7 7 0 0 0-6.6 4.2l-9.8 20.6c2.7 3.7 7.6 6.7 12.5 7.7l3.1-6.7a.8.8 0 0 1 1.5 0l3.2 6.6 6.3 13.3 3 6.5a7 7 0 0 0 6.7 4.2l2-.3a7.4 7.4 0 0 0 4.4-10.4" fill="#ff536a"/></g><path d="m28.8 52 6.4-13.4c-4.9-1-9.8-4-12.5-7.7L16 45q5.6 4.8 12.8 7" fill="#1a007f" fill-rule="evenodd" clip-rule="evenodd"/><path d="M55.3 30.5q-5 6.1-12.4 8l6.4 13.3q7-2.4 12.6-7.3z" fill="#4e000a" fill-rule="evenodd" clip-rule="evenodd"/><path d="m16 44.9-3.3 7a7.4 7.4 0 0 0 3 9.7c3.8 2 8.3.5 10-3.3l3.1-6.3A38 38 0 0 1 16 44.9" fill="#1a007f" fill-rule="evenodd" clip-rule="evenodd"/><path d="M68.5 15.3a7.3 7.3 0 0 0-8.6 5.7 22 22 0 0 1-4.6 9.5l6.6 14a37 37 0 0 0 12.3-20.6c.8-4-1.8-7.8-5.7-8.6" fill="#ff9396" fill-rule="evenodd" clip-rule="evenodd"/><path d="M43 38.5a19 19 0 0 1-7.9.1c-4.8-1-9.7-4-12.4-7.7q-1-1.3-1.7-2.8a7.3 7.3 0 0 0-13.5 5.5q2.7 6.3 8.5 11.3a38 38 0 0 0 12.8 7 32 32 0 0 0 20.5-.1z" fill="#002dc8" fill-rule="evenodd" clip-rule="evenodd"/><path d="M65.4 51.8 62 44.5l-6.6-14-9.6-20.2A7 7 0 0 0 39 6a7 7 0 0 0-6.6 4.2l-9.8 20.6c2.7 3.7 7.6 6.7 12.5 7.7l3.1-6.7a.8.8 0 0 1 1.5 0l3.2 6.6 6.3 13.3 3 6.5a7 7 0 0 0 6.7 4.2l2-.3a7.4 7.4 0 0 0 4.4-10.4" fill="#ff536a" fill-rule="evenodd" clip-rule="evenodd"/></svg>