<svg xmlns="http://www.w3.org/2000/svg" viewBox="0 0 218 256"><defs><linearGradient id="a" x1="0%" x2="100%" y1="50.7%" y2="50.7%"><stop offset="0%" stop-color="#F50"/><stop offset="41%" stop-color="#F50"/><stop offset="58.2%" stop-color="#FF2000"/><stop offset="100%" stop-color="#FF2000"/></linearGradient><linearGradient id="b" x1="2.1%" x2="100%" y1="50.7%" y2="50.7%"><stop offset="0%" stop-color="#FF452A"/><stop offset="100%" stop-color="#FF2000"/></linearGradient><path id="c" d="M170.3 25.3 148 0H69.6L47.3 25.3S27.7 20 18.5 29.1c0 0 26.1-2.3 35 12.3 0 0 24.3 4.6 27.6 4.6 3.2 0 10.3-2.7 16.8-4.9 6.5-2.1 10.9-2.2 10.9-2.2s4.4 0 10.9 2.2 13.6 5 16.8 5 27.5-4.7 27.5-4.7c9-14.6 35.1-12.3 35.1-12.3-9.2-9.2-28.8-3.8-28.8-3.8"/></defs><g fill="none" fill-rule="evenodd" transform="translate(.1)"><path fill="url(#a)" d="m210 61.3 6-14.7s-7.6-8.2-17-17.6c-9.2-9.2-28.8-3.8-28.8-3.8L148 0H69.6L47.3 25.3S27.7 20 18.5 29.1C9.2 38.4 1.6 46.6 1.6 46.6l6 14.7L0 83l25 95.3c5.2 20.4 8.7 28.3 23.4 38.7 14.7 10.3 41.4 28.3 45.7 31s9.8 7.4 14.7 7.4 10.3-4.7 14.7-7.4 31-20.7 45.7-31 18.2-18.3 23.4-38.7c2.6-10.4 25-95.3 25-95.3z"/><path fill="#FFF" d="M164 41.4s28.7 34.7 28.7 42.1c0 7.5-3.6 9.4-7.2 13.3L164 119.7c-2 2.1-6.3 5.4-3.8 11.3s6.1 13.4 2 21c-4 7.7-11 12.8-15.5 12a82 82 0 0 1-19-9c-3.8-2.5-16-12.6-16-16.5s12.6-10.9 15-12.4c2.3-1.6 13-7.8 13.2-10.2s.2-3-3-9-8.8-13.9-7.9-19.2 10.1-8 16.7-10.5l20.7-7.8c1.6-.8 1.2-1.5-3.6-2s-18.3-2.2-24.4-.5-16.5 4.3-17.4 5.7-1.6 1.4-.7 6.2c.9 4.7 5.3 27.4 5.8 31.5.4 4 1.2 6.7-3.1 7.7-4.4 1-11.7 2.7-14.2 2.7S99 119 94.6 118s-3.5-3.7-3-7.7 4.8-26.8 5.7-31.5c.9-4.8.1-4.8-.7-6.2-.9-1.4-11.3-4-17.4-5.7s-19.6.1-24.4.6-5.2 1.1-3.6 1.9L72 77.2c6.6 2.5 15.8 5.3 16.7 10.5 1 5.3-4.7 13.2-7.9 19.2s-3.2 6.6-3 9 10.9 8.6 13.2 10.2c2.4 1.5 15 8.5 15 12.4s-12.2 14-16 16.5a82 82 0 0 1-19 9c-4.5.8-11.5-4.3-15.6-12-4-7.6-.4-15 2.1-21s-1.7-9.2-3.8-11.3l-21.5-23C28.5 93 25 91 25 83.6s28.7-42.1 28.7-42.1S77.8 46 81 46s10.3-2.7 16.8-4.9c6.5-2.1 10.9-2.2 10.9-2.2s4.4 0 10.9 2.2 13.6 5 16.8 5 27.5-4.7 27.5-4.7m-21.5 132.8c1.8 1.1.7 3.2-1 4.4-1.5 1.1-23.3 18-25.4 19.8-2 2-5.2 5-7.3 5s-5.2-3-7.3-5L76 178.6c-1.6-1.2-2.7-3.3-1-4.4l15-7.9c7.8-4 17.3-7.3 18.8-7.3s11 3.4 18.7 7.3c7.7 4 13.2 6.8 15 8"/><use fill="url(#b)" href="#c"/></g></svg>