<svg xmlns="http://www.w3.org/2000/svg" xmlns:xlink="http://www.w3.org/1999/xlink" xml:space="preserve" overflow="hidden" viewBox="0 0 720 720"><defs><radialGradient id="f" cx="26.4" cy="621.4" r="172.4" gradientTransform="matrix(-.1224 3.29237 7.01239 .2607 -4221 -55.2)" gradientUnits="userSpaceOnUse" spreadMethod="pad"><stop offset="0" stop-color="#35C1F1"/><stop offset=".1" stop-color="#34C1ED"/><stop offset=".2" stop-color="#2FC2DF"/><stop offset=".3" stop-color="#2BC3D2"/><stop offset=".7" stop-color="#36C752"/><stop offset="1" stop-color="#36C752"/></radialGradient><radialGradient id="e" cx="310.1" cy="654.2" r="82.9" gradientTransform="matrix(.92613 3.1619 2.58138 -.75613 -1233 -205.7)" gradientUnits="userSpaceOnUse" spreadMethod="pad"><stop offset="0" stop-color="#66EB6E"/><stop offset="1" stop-color="#66EB6E" stop-opacity="0"/></radialGradient><linearGradient id="a" x1="227.2" x2="727.7" y1="559.4" y2="559.4" gradientUnits="userSpaceOnUse" spreadMethod="pad"><stop offset="0" stop-color="#0C59A4"/><stop offset="1" stop-color="#114A8B"/></linearGradient><linearGradient id="c" x1="491.1" x2="178.5" y1="342.2" y2="682.8" gradientUnits="userSpaceOnUse" spreadMethod="pad"><stop offset="0" stop-color="#1B9DE2"/><stop offset=".2" stop-color="#1595DF"/><stop offset=".7" stop-color="#0680D7"/><stop offset="1" stop-color="#0078D4"/></linearGradient><clipPath id="b"><path d="M445 281h501v433H445z"/></clipPath><clipPath id="d"><path d="M280 135h474v585H280z"/></clipPath></defs><path fill="url(#a)" d="M711 597.3a288 288 0 0 1-130.5 31.3c-132.8 0-248.4-91.2-248.4-208.5a88 88 0 0 1 46.1-76.5c-120.2 5-150.9 130.2-150.9 203.3 0 207.3 191.1 228.3 232.3 228.3a304 304 0 0 0 79.4-14.1 361 361 0 0 0 186.8-148.3c6.3-9.5-4.6-21-14.8-15.5" transform="matrix(1 0 0 1.0003 -61.8 -62)"/><g clip-path="url(#b)" transform="translate(-280)"><use xlink:href="#c" width="100%" height="100%" transform="translate(445 281)"/></g><path fill="url(#c)" d="M359.1 740c-25-15.5-46.8-36-63.9-60a228 228 0 0 1-42.5-133c0-73.6 34.3-138.5 86.7-179.6a229 229 0 0 1 38.5-24 92 92 0 0 1 43.5-11.3 90.5 90.5 0 0 1 90 88.6c0-.6 68.5-223.3-224.8-223.3-122.5 0-224 117-224 219.7 0 65 15.2 117 34 157.2A361 361 0 0 0 312.2 764a362 362 0 0 0 223.4-1.3 214 214 0 0 1-63.9 9.9A216 216 0 0 1 359.1 740" transform="matrix(1 0 0 1.0003 -61.8 -62)"/><g clip-path="url(#d)" transform="translate(-280)"><use xlink:href="#e" width="100%" height="100%" transform="translate(280 135)"/></g><path fill="url(#f)" d="M490 480.4c-2.4 3-9.3 6.9-9.3 15.8 0 7.2 4.6 14.5 13.2 20.4 40.5 28 116.3 24.4 116.6 24.4a170 170 0 0 0 116.6-47.1 174 174 0 0 0 53.7-124.6c.7-62.9-22.4-104.7-32-123.2-59.2-116.6-187.4-183.5-327-183.5A359 359 0 0 0 62.5 416.8C63.9 314.3 165.7 231.3 287 231.3c9.9 0 65.9 1 118 28.3 45.7 24 69.8 53 86.6 82 17.4 30 20.4 68 20.4 82.8s-8 37.5-22 56" transform="matrix(1 0 0 1.0003 -61.8 -62)"/><path fill="url(#e)" d="M490 480.4c-2.4 3-9.3 6.9-9.3 15.8 0 7.2 4.6 14.5 13.2 20.4 40.5 28 116.3 24.4 116.6 24.4a170 170 0 0 0 116.6-47.1 174 174 0 0 0 53.7-124.6c.7-62.9-22.4-104.7-32-123.2-59.2-116.6-187.4-183.5-327-183.5A359 359 0 0 0 62.5 416.8C63.9 314.3 165.7 231.3 287 231.3c9.9 0 65.9 1 118 28.3 45.7 24 69.8 53 86.6 82 17.4 30 20.4 68 20.4 82.8s-8 37.5-22 56" transform="matrix(1 0 0 1.0003 -61.8 -62)"/></svg>