<svg xmlns="http://www.w3.org/2000/svg" viewBox="0 0 77.4 80"><defs><linearGradient id="a" x1="70.8" x2="6.4" y1="12.4" y2="74.5" gradientTransform="translate(-1.3)" gradientUnits="userSpaceOnUse"><stop offset="0" stop-color="#fff44f"/><stop offset=".1" stop-color="#ffe847"/><stop offset=".2" stop-color="#ffc830"/><stop offset=".4" stop-color="#ff980e"/><stop offset=".4" stop-color="#ff8b16"/><stop offset=".5" stop-color="#ff672a"/><stop offset=".5" stop-color="#ff3647"/><stop offset=".7" stop-color="#e31587"/></linearGradient><radialGradient id="b" cx="-7907" cy="-8515" r="80.8" gradientTransform="translate(7974 8524)" gradientUnits="userSpaceOnUse"><stop offset=".1" stop-color="#ffbd4f"/><stop offset=".2" stop-color="#ffac31"/><stop offset=".2" stop-color="#ff9d17"/><stop offset=".3" stop-color="#ff980e"/><stop offset=".4" stop-color="#ff563b"/><stop offset=".5" stop-color="#ff3750"/><stop offset=".7" stop-color="#f5156c"/><stop offset=".8" stop-color="#eb0878"/><stop offset=".9" stop-color="#e50080"/></radialGradient><radialGradient id="c" cx="-7937" cy="-8482" r="80.8" gradientTransform="translate(7974 8524)" gradientUnits="userSpaceOnUse"><stop offset=".3" stop-color="#960e18"/><stop offset=".4" stop-color="#b11927" stop-opacity=".7"/><stop offset=".4" stop-color="#db293d" stop-opacity=".3"/><stop offset=".5" stop-color="#f5334b" stop-opacity=".1"/><stop offset=".5" stop-color="#ff3750" stop-opacity="0"/></radialGradient><radialGradient id="d" cx="-7927" cy="-8533" r="58.5" gradientTransform="translate(7974 8524)" gradientUnits="userSpaceOnUse"><stop offset=".1" stop-color="#fff44f"/><stop offset=".3" stop-color="#ffdc3e"/><stop offset=".5" stop-color="#ff9d12"/><stop offset=".5" stop-color="#ff980e"/></radialGradient><radialGradient id="e" cx="-7946" cy="-8461" r="38.5" gradientTransform="translate(7974 8524)" gradientUnits="userSpaceOnUse"><stop offset=".4" stop-color="#3a8ee6"/><stop offset=".5" stop-color="#5c79f0"/><stop offset=".7" stop-color="#9059ff"/><stop offset="1" stop-color="#c139e6"/></radialGradient><radialGradient id="f" cx="-7936" cy="-8492" r="20.4" gradientTransform="matrix(.972 -.235 .275 1.138 10090 7834)" gradientUnits="userSpaceOnUse"><stop offset=".2" stop-color="#9059ff" stop-opacity="0"/><stop offset=".3" stop-color="#8c4ff3" stop-opacity=".1"/><stop offset=".7" stop-color="#7716a8" stop-opacity=".5"/><stop offset="1" stop-color="#6e008b" stop-opacity=".6"/></radialGradient><radialGradient id="g" cx="-7938" cy="-8518" r="27.7" gradientTransform="translate(7974 8524)" gradientUnits="userSpaceOnUse"><stop offset="0" stop-color="#ffe226"/><stop offset=".1" stop-color="#ffdb27"/><stop offset=".3" stop-color="#ffc82a"/><stop offset=".5" stop-color="#ffa930"/><stop offset=".7" stop-color="#ff7e37"/><stop offset=".8" stop-color="#ff7139"/></radialGradient><radialGradient id="h" cx="-7916" cy="-8536" r="118.1" gradientTransform="translate(7974 8524)" gradientUnits="userSpaceOnUse"><stop offset=".1" stop-color="#fff44f"/><stop offset=".5" stop-color="#ff980e"/><stop offset=".6" stop-color="#ff5634"/><stop offset=".7" stop-color="#ff3647"/><stop offset=".9" stop-color="#e31587"/></radialGradient><radialGradient id="i" cx="-7927" cy="-8523" r="86.5" gradientTransform="matrix(.105 .995 -.653 .069 -4685 8470)" gradientUnits="userSpaceOnUse"><stop offset="0" stop-color="#fff44f"/><stop offset=".1" stop-color="#ffe847"/><stop offset=".2" stop-color="#ffc830"/><stop offset=".3" stop-color="#ff980e"/><stop offset=".4" stop-color="#ff8b16"/><stop offset=".5" stop-color="#ff672a"/><stop offset=".6" stop-color="#ff3647"/><stop offset=".7" stop-color="#e31587"/></radialGradient><radialGradient id="j" cx="-7938" cy="-8508" r="73.7" gradientTransform="translate(7974 8524)" gradientUnits="userSpaceOnUse"><stop offset=".1" stop-color="#fff44f"/><stop offset=".5" stop-color="#ff980e"/><stop offset=".6" stop-color="#ff5634"/><stop offset=".7" stop-color="#ff3647"/><stop offset=".9" stop-color="#e31587"/></radialGradient><radialGradient id="k" cx="-7919" cy="-8504" r="80.7" gradientTransform="translate(7974 8524)" gradientUnits="userSpaceOnUse"><stop offset=".1" stop-color="#fff44f"/><stop offset=".2" stop-color="#ffe141"/><stop offset=".5" stop-color="#ffaf1e"/><stop offset=".6" stop-color="#ff980e"/></radialGradient><linearGradient id="l" x1="70" x2="15.3" y1="12.1" y2="66.8" gradientTransform="translate(-1.3)" gradientUnits="userSpaceOnUse"><stop offset=".2" stop-color="#fff44f" stop-opacity=".8"/><stop offset=".3" stop-color="#fff44f" stop-opacity=".6"/><stop offset=".5" stop-color="#fff44f" stop-opacity=".2"/><stop offset=".6" stop-color="#fff44f" stop-opacity="0"/></linearGradient></defs><path fill="url(#a)" d="M74.6 26.8c-1.7-4-5-8.4-7.8-9.8a40 40 0 0 1 4 11.8C66.4 18 59 13.5 52.9 4l-1.3-2.3L51 .1h-.2a28 28 0 0 0-13.4 21.4 19 19 0 0 0-10.6 4.1l-1-.7a18 18 0 0 1-.1-9.5 29 29 0 0 0-9.4 7.2c-1.5-2-1.4-8.3-1.3-9.7l-1.3.7a28 28 0 0 0-3.8 3.2 34 34 0 0 0-3.6 4.4A33 33 0 0 0 1 32.9v.3l-.5 2.4v.1L0 41v.2a38.8 38.8 0 0 0 77 6.6l.1-1.5a40 40 0 0 0-2.5-19.5M30 57.2l.5.2q-.3 0-.5-.2m40.8-28.4" transform="translate(.7 .7)scale(.98198)"/><path fill="url(#b)" d="M74.6 26.8c-1.7-4-5-8.4-7.8-9.8a40 40 0 0 1 4 11.8A35 35 0 0 1 69.6 55a33 33 0 0 1-32 18.8A39 39 0 0 1 .4 42.2c-.6-2.8 0-4.2.2-6.5A29 29 0 0 0 0 41v.2a38.8 38.8 0 0 0 77 6.6l.1-1.5a40 40 0 0 0-2.5-19.5" transform="translate(.7 .7)scale(.98198)"/><path fill="url(#c)" d="M74.6 26.8c-1.7-4-5-8.4-7.8-9.8a40 40 0 0 1 4 11.8A35 35 0 0 1 69.6 55a33 33 0 0 1-32 18.8A39 39 0 0 1 .4 42.2c-.6-2.8 0-4.2.2-6.5A29 29 0 0 0 0 41v.2a38.8 38.8 0 0 0 77 6.6l.1-1.5a40 40 0 0 0-2.5-19.5" transform="translate(.7 .7)scale(.98198)"/><path fill="url(#d)" d="m55.8 31.4.2.2a21 21 0 0 0-3.6-4.7C40.4 14.9 49.3.7 50.8 0a28 28 0 0 0-13.4 21.5h1.4a20 20 0 0 1 17 9.9" transform="translate(.7 .7)scale(.98198)"/><path fill="url(#e)" d="M38.8 33.8c0 1-3.4 4.3-4.6 4.3-11 0-12.9 6.6-12.9 6.6a16 16 0 0 0 9.8 13l1.2.5a17 17 0 0 0 5 1c19.3.9 23-23.1 9.1-30a13 13 0 0 1 9.4 2.2 20 20 0 0 0-17-10l-1.4.1a19 19 0 0 0-10.6 4.1l2.6 2.6c2.7 2.6 9.4 5.3 9.4 5.6" transform="translate(.7 .7)scale(.98198)"/><path fill="url(#f)" d="M38.8 33.8c0 1-3.4 4.3-4.6 4.3-11 0-12.9 6.6-12.9 6.6a16 16 0 0 0 9.8 13l1.2.5a17 17 0 0 0 5 1c19.3.9 23-23.1 9.1-30a13 13 0 0 1 9.4 2.2 20 20 0 0 0-17-10l-1.4.1a19 19 0 0 0-10.6 4.1l2.6 2.6c2.7 2.6 9.4 5.3 9.4 5.6" transform="translate(.7 .7)scale(.98198)"/><path fill="url(#g)" d="m25 24.4.8.5a18 18 0 0 1-.1-9.5 29 29 0 0 0-9.4 7.2c.2 0 5.8 0 8.7 1.8" transform="translate(.7 .7)scale(.98198)"/><path fill="url(#h)" d="M.4 42.2a39 39 0 0 0 37.1 31.6c16.9.5 27.6-9.3 32-18.8a35 35 0 0 0 1.4-26v-.1c1.4 9-3.2 17.7-10.4 23.6-13.9 11.4-27.2 6.9-29.9 5q-.3 0-.5-.2C21.9 53.4 18.6 46 19.3 39.7a10 10 0 0 1-9.2-5.8 15 15 0 0 1 14.3-.6 19 19 0 0 0 14.5.6c0-.3-6.7-3-9.4-5.6l-2.6-2.5-1-.8-.8-.5a19 19 0 0 0-8.7-1.8c-1.5-2-1.4-8.3-1.3-9.7l-1.3.7A28 28 0 0 0 9.9 17a34 34 0 0 0-3.6 4.3A33 33 0 0 0 1 32.9C1 33-.3 39 .3 42.2" transform="translate(.7 .7)scale(.98198)"/><path fill="url(#i)" d="M52.4 26.9a21 21 0 0 1 3.6 4.7l.6.4c8.8 8.1 4.2 19.6 3.8 20.4a26 26 0 0 0 10.4-23.6C66.4 18 59 13.5 52.8 4l-1.2-2.3L51 .1l-.1-.1h-.1c-1.5.7-10.4 14.8 1.6 26.8z" transform="translate(.7 .7)scale(.98198)"/><path fill="url(#j)" d="m56.6 32-.6-.4-.2-.2a13 13 0 0 0-9.4-2.3c14 7 10.2 31-9 30a17 17 0 0 1-5.1-.9l-1.2-.5-.6-.3c2.7 1.9 16 6.4 30-5 .3-.8 4.9-12.3-3.9-20.4" transform="translate(.7 .7)scale(.98198)"/><path fill="url(#k)" d="M21.4 44.7s1.7-6.6 12.8-6.6c1.2 0 4.6-3.4 4.6-4.3a19 19 0 0 1-14.5-.6 15 15 0 0 0-14.3.6 10 10 0 0 0 9.2 5.8c-.7 6.3 2.6 13.7 10.7 17.6l.6.2c-4.8-2.4-8.7-7-9.1-12.7" transform="translate(.7 .7)scale(.98198)"/><path fill="url(#l)" d="M74.6 26.8c-1.7-4-5-8.4-7.8-9.8a40 40 0 0 1 4 11.8C66.4 18 59 13.5 52.9 4l-1.3-2.3L51 .1h-.2a28 28 0 0 0-13.4 21.4h1.4a20 20 0 0 1 17 9.9 13 13 0 0 0-9.4-2.3c14 7 10.2 31-9 30a17 17 0 0 1-5.1-.9l-1.2-.5-.6-.3q-.3 0-.5-.2l.5.2a16 16 0 0 1-9.1-12.6s1.7-6.7 12.8-6.7c1.2 0 4.6-3.3 4.6-4.3 0-.3-6.7-3-9.4-5.6l-2.6-2.5-1-.8a18 18 0 0 1-.1-9.5 29 29 0 0 0-9.4 7.2c-1.5-2-1.4-8.3-1.3-9.7l-1.3.7A28 28 0 0 0 9.9 17a34 34 0 0 0-3.6 4.3A33 33 0 0 0 1 32.9v.3l-.5 2.4L0 41v.2a38.8 38.8 0 0 0 77 6.6l.1-1.5a40 40 0 0 0-2.5-19.5m-3.8 2" transform="translate(.7 .7)scale(.98198)"/></svg>