<svg xmlns="http://www.w3.org/2000/svg" viewBox="0 0 75.6 75.6"><linearGradient id="a" x2="1" gradientTransform="scale(54.944 -54.944)rotate(90 1 -.5)" gradientUnits="userSpaceOnUse"><stop offset="0" stop-color="#ff1b2d"/><stop offset=".3" stop-color="#ff1b2d"/><stop offset=".6" stop-color="#ff1b2d"/><stop offset="1" stop-color="#a70014"/></linearGradient><linearGradient id="b" x2="1" gradientTransform="matrix(0 -48.595 -48.595 0 37.9 76.2)" gradientUnits="userSpaceOnUse"><stop offset="0" stop-color="#9c0000"/><stop offset=".7" stop-color="#ff4b4b"/><stop offset="1" stop-color="#ff4b4b"/></linearGradient><path fill="url(#a)" d="M28.3 80.4a28.3 28.3 0 1 1 19-49.5 21 21 0 0 0-11.4-3.5A21 21 0 0 0 19 36.1a25 25 0 0 0-5.3 15.3v1.3q.6 9.6 5.3 15.3a20.4 20.4 0 0 0 28.2 5.2c-5 4.4-11.5 7.2-18.7 7.2z" transform="matrix(1.3333 0 0 -1.3333 0 107.2)"/><path fill="url(#b)" d="M19 68q4 4.8 9.6 5c8.3 0 15-9.4 15-21s-6.7-20.8-15-20.8q-5.5.1-9.6 4.9a20.5 20.5 0 0 1 28.2-5.2 28.3 28.3 0 0 1 0 42.3A20 20 0 0 1 36 76.7c-7 0-13-3.4-17-8.7" transform="matrix(1.3333 0 0 -1.3333 0 107.2)"/></svg>